{"title":"21.Jump.Street.2012.BDRip.XVID.AC3.HQ.Hive-CM8","uid":7346688,"size":1793402094,"categoryP":"video","categoryS":"movies","magnet":"?xt=urn:btih:a1362eb37f20ace7b99751c762c83096ef4b50ae&amp;dn=21.Jump.Street.2012.BDRip.XVID.AC3.HQ.Hive-CM8&amp;tr=udp%3A%2F%2Ftracker.openbittorrent.com%3A80&amp;tr=udp%3A%2F%2Fopen.demonii.com%3A1337&amp;tr=udp%3A%2F%2Ftracker.coppersurfer.tk%3A6969&amp;tr=udp%3A%2F%2Fexodus.desync.com%3A6969","seeders":1,"leechers":0,"uploader":"PoOoP12","files":4,"time":1339445598,"description":"\n\nSource: Bluray\n\nVideo:  720x304 @bitrate 1700 2pass\nAudio: English DTS to AC3 5.1 @448\nSubs: Yes, English in srt /subs\nSample: Yes, included[/b]\n\n &lt;a href=&quot;\nhttp://www.imdb.com/title/tt1232829/&quot; rel=&quot;nofollow&quot; target=&quot;_NEW&quot;&gt;\nhttp://www.imdb.com/title/tt1232829/&lt;/a&gt;\n\n\nGeneral\nComplete name                  : 21.Jump.Street.2012.BDRip.XVID.AC3.HQ.Hive-CM8.avi\nFormat                         : AVI\nFormat/Info                    : Audio Video Interleave\nFile size                      : 1.65 GiB\nDuration                       : 1h 49mn\nOverall bit rate               : 2 157 Kbps\nWriting application            : Nandub v1.0rc2\nWriting library                : Nandub build 1853/release\n\nVideo\nID                             : 0\nFormat                         : MPEG-4 Visual\nFormat profile                 : Advanced Simple@L5\nFormat settings, BVOP          : 1\nFormat settings, QPel          : Yes\nFormat settings, GMC           : No warppoints\nFormat settings, Matrix        : Default (H.263)\nMuxing mode                    : Packed bitstream\nCodec ID                       : XVID\nCodec ID/Hint                  : XviD\nDuration                       : 1h 49mn\nBit rate                       : 1 700 Kbps\nWidth                          : 720 pixels\nHeight                         : 304 pixels\nDisplay aspect ratio           : 2.40:1\nFrame rate                     : 23.976 fps\nColor space                    : YUV\nChroma subsampling             : 4:2:0\nBit depth                      : 8 bits\nScan type                      : Progressive\nCompression mode               : Lossy\nBits/(Pixel*Frame)             : 0.324\nStream size                    : 1.30 GiB (79%)\nWriting library                : XviD 1.2.1 (UTC 2008-12-04)\n\nAudio\nID                             : 1\nFormat                         : AC-3\nFormat/Info                    : Audio Coding 3\nMode extension                 : CM (complete main)\nFormat settings, Endianness    : Big\nCodec ID                       : 2000\nDuration                       : 1h 49mn\nBit rate mode                  : Constant\nBit rate                       : 448 Kbps\nChannel(s)                     : 6 channels\nChannel positions              : Front: L C R, Side: L R, LFE\nSampling rate                  : 48.0 KHz\nBit depth                      : 16 bits\nCompression mode               : Lossy\nStream size                    : 351 MiB (21%)\nAlignment                      : Split accross interleaves\nInterleave, duration           : 42 ms (1.00 video frame)\nInterleave, preload duration   : 500 ms\n\n\nPlot:\nA pair of underachieving cops are sent back to a local high school\nto blend in and bring down a synthetic drug ring.\n\n\nCast:\nJonah Hill       ...    Schmidt\nChanning Tatum   ...    Jenko\nIce Cube         ...    Captain Dickson\nBrie Larson      ...    Molly Tracey\n\n &lt;a href=&quot;\nhttp://img850.imageshack.us/img850/8530/jjuujujujujujjuu.png&quot; rel=&quot;nofollow&quot; target=&quot;_NEW&quot;&gt;\nhttp://img850.imageshack.us/img850/8530/jjuujujujujujjuu.png&lt;/a&gt; &lt;a href=&quot;\nhttp://img88.imageshack.us/img88/4081/16405875.png&quot; rel=&quot;nofollow&quot; target=&quot;_NEW&quot;&gt;\nhttp://img88.imageshack.us/img88/4081/16405875.png&lt;/a&gt; &lt;a href=&quot;\nhttp://img404.imageshack.us/img404/9966/jjuujujujujjuu.png&quot; rel=&quot;nofollow&quot; target=&quot;_NEW&quot;&gt;\nhttp://img404.imageshack.us/img404/9966/jjuujujujujjuu.png&lt;/a&gt;","torrent":{"xt":"urn:btih:a1362eb37f20ace7b99751c762c83096ef4b50ae","amp;dn":"21.Jump.Street.2012.BDRip.XVID.AC3.HQ.Hive-CM8","amp;tr":["udp%3A%2F%2Ftracker.openbittorrent.com%3A80","udp%3A%2F%2Fopen.demonii.com%3A1337","udp%3A%2F%2Ftracker.coppersurfer.tk%3A6969","udp%3A%2F%2Fexodus.desync.com%3A6969"],"infoHash":"a1362eb37f20ace7b99751c762c83096ef4b50ae","infoHashBuffer":{"type":"Buffer","data":[161,54,46,179,127,32,172,231,185,151,81,199,98,200,48,150,239,75,80,174]},"announce":[],"urlList":[]}}